# xmcd
# Copyright (C) 1995-1998 Ti Kan
#
# Track frame offsets:
#       183
#       63075
#       121155
#       186293
#       240605
#
# Disc length: 4006 seconds
#
# Revision: 0
# Processed by: cddbd v1.5.2PL0 Copyright (c) Steve Scherf et al.
# Submitted via: CD-Import v1.0
#
DISCID=3a0fa405
DTITLE=Beromünster - Archive Des Schweizer Radios (1934-1958)
DYEAR=1993
DGENRE=
TTITLE0=Soziales (1934-1945)
TTITLE1=Frauen (1946-1951)
TTITLE2=Industrie (1936-1945)
TTITLE3=Sport (1946-1951)
TTITLE4=Verkehr (1946-1958)
EXTD=
EXTT0=
EXTT1=
EXTT2=
EXTT3=
EXTT4=
PLAYORDER=
